<?xml version="1.0" encoding="iso-8859-1"?>
<!-- Generator: Adobe Illustrator 18.1.1, SVG Export Plug-In . SVG Version: 6.00 Build 0)  -->
<svg xmlns="http://www.w3.org/2000/svg" xmlns:xlink="http://www.w3.org/1999/xlink" version="1.1" id="Capa_1" x="0px" y="0px" viewBox="0 0 478.185 478.185" style="enable-background:new 0 0 478.185 478.185;" xml:space="preserve" width="512px" height="512px">
<g>
	<path id="Picasa" d="M141.198,343.731c5.14,0,304.153,0,312.68,0c-36.759,75.67-110.317,126.873-192.92,134.444h-43.832   c-26.18-2.391-51.741-9.284-75.909-20.123C141.198,454.705,141.198,348.731,141.198,343.731z M337.644,21.507   C306.424,7.282,273.231,0.01,239.082,0.01c-28.471,0-56.483,5.539-83.5,15.64c6.415,5.798,174.012,158.093,182.081,165.584   C337.644,170.237,337.644,24.835,337.644,21.507z M130.121,26.628C49.908,67.889,0,149.217,0,239.61   c0,20.541,3.068,41.481,8.667,62.161c6.515-5.798,207.802-189.054,211.966-192.919C216.609,105.246,132.83,29.138,130.121,26.628z    M116.035,444.145c0-9.364,0-194.832,0-205.969c-7.969,7.272-96.011,87.405-98.781,90.054   C36.42,376.345,71.426,417.109,116.035,444.145z M362.867,35.235c0,9.543,0,278.093,0,283.193c5.001,0,97.964,0,101.749,0   c8.886-25.542,13.568-52.12,13.568-78.817C478.165,156.25,433.895,78.668,362.867,35.235z" fill="#0078A1"/>
</g>
<g>
</g>
<g>
</g>
<g>
</g>
<g>
</g>
<g>
</g>
<g>
</g>
<g>
</g>
<g>
</g>
<g>
</g>
<g>
</g>
<g>
</g>
<g>
</g>
<g>
</g>
<g>
</g>
<g>
</g>
</svg>
